<svg width="100" height="100" viewBox="0 0 100 100" fill="none" xmlns="http://www.w3.org/2000/svg">
<rect width="100" height="100" fill="white"/>
<path d="M50 100C77.6142 100 100 77.6142 100 50C100 22.3858 77.6142 0 50 0C22.3858 0 0 22.3858 0 50C0 77.6142 22.3858 100 50 100Z" fill="url(#paint0_linear_85_10)"/>
<path d="M60.8295 77.3183L67.265 70.8827C67.4685 70.6791 67.5828 70.403 67.5828 70.1151C67.5828 69.8273 67.4685 69.5512 67.265 69.3476L48.6791 50.7675C48.4756 50.5638 48.3613 50.2878 48.3613 49.9999C48.3613 49.712 48.4756 49.4359 48.6791 49.2323L67.265 30.6522C67.4685 30.4486 67.5828 30.1725 67.5828 29.8847C67.5828 29.5968 67.4685 29.3207 67.265 29.1171L60.8295 22.6718C60.6259 22.4683 60.3498 22.354 60.0619 22.354C59.774 22.354 59.498 22.4683 59.2943 22.6718L32.7318 49.2226C32.5284 49.4262 32.4141 49.7023 32.4141 49.9901C32.4141 50.278 32.5284 50.5541 32.7318 50.7577L59.2943 77.3085C59.4967 77.5133 59.772 77.6293 60.0599 77.6311C60.3478 77.633 60.6246 77.5204 60.8295 77.3183Z" fill="white"/>
<defs>
<linearGradient id="paint0_linear_85_10" x1="50" y1="0" x2="50" y2="100" gradientUnits="userSpaceOnUse">
<stop stop-color="#078D34"/>
<stop offset="1" stop-color="#6B4D02"/>
</linearGradient>
</defs>
</svg>
